<?xml version="1.0" encoding="UTF-8"?>
<!DOCTYPE svg PUBLIC "-//W3C//DTD SVG 1.1//EN" "http://www.w3.org/Graphics/SVG/1.1/DTD/svg11.dtd">
<!-- Creator: CorelDRAW 2019 (64-Bit Versión de evaluación) -->
<svg xmlns="http://www.w3.org/2000/svg" xml:space="preserve" width="17.0098mm" height="8.5429mm" version="1.1" style="shape-rendering:geometricPrecision; text-rendering:geometricPrecision; image-rendering:optimizeQuality; fill-rule:evenodd; clip-rule:evenodd"
viewBox="0 0 176.19 88.49"
 xmlns:xlink="http://www.w3.org/1999/xlink">
 <defs>
  <style type="text/css">
   <![CDATA[
    .str0 {stroke:#D2D3D5;stroke-width:0.79;stroke-miterlimit:22.9256}
    .fil0 {fill:#D2D3D5}
    .fil4 {fill:#BDBFC1}
    .fil5 {fill:#FEFEFE;fill-rule:nonzero}
    .fil1 {fill:#ED3237;fill-rule:nonzero}
    .fil3 {fill:#00AFEF;fill-rule:nonzero}
    .fil2 {fill:#00A859;fill-rule:nonzero}
   ]]>
  </style>
 </defs>
 <g id="Capa_x0020_1">
  <metadata id="CorelCorpID_0Corel-Layer"/>
  <g id="_2071808621376">
   <rect class="fil0 str0" x="0.4" y="0.39" width="175.4" height="87.7"/>
   <g id="img-h">
    <path class="fil1" d="M39.71 10.55c0.95,0 1.75,0.34 2.42,1.02 0.67,0.67 1.01,1.49 1.01,2.44 0,0.94 -0.34,1.75 -1.01,2.42 -0.67,0.68 -1.48,1.02 -2.42,1.02 -0.94,0 -1.73,-0.34 -2.4,-1.02 -0.67,-0.67 -1.01,-1.49 -1.01,-2.42 0,-0.95 0.34,-1.77 1.01,-2.44 0.67,-0.68 1.47,-1.02 2.4,-1.02zm-2.07 13.31l4.15 0 0 32.41 -4.15 0 0 -32.41z"/>
    <path class="fil2" d="M50.47 23.86l4.15 0 0 5.6c1.46,-2.07 2.94,-3.58 4.48,-4.54 2.11,-1.24 4.32,-1.86 6.64,-1.86 1.58,0 3.06,0.31 4.48,0.93 1.41,0.61 2.56,1.43 3.46,2.45 0.9,1.03 1.67,2.49 2.33,4.4 1.38,-2.54 3.12,-4.48 5.2,-5.8 2.08,-1.32 4.32,-1.98 6.72,-1.98 2.24,0 4.22,0.57 5.93,1.7 1.72,1.13 2.99,2.71 3.83,4.73 0.83,2.03 1.25,5.06 1.25,9.1l0 17.67 -4.27 0 0 -17.68c0,-3.48 -0.24,-5.86 -0.74,-7.16 -0.5,-1.3 -1.34,-2.35 -2.54,-3.14 -1.2,-0.79 -2.62,-1.19 -4.29,-1.19 -2.01,0 -3.87,0.6 -5.53,1.79 -1.68,1.19 -2.9,2.78 -3.67,4.76 -0.77,1.98 -1.16,5.3 -1.16,9.94l0 12.69 -4.15 0 0 -16.58c0,-3.91 -0.24,-6.56 -0.73,-7.97 -0.49,-1.4 -1.33,-2.52 -2.54,-3.37 -1.22,-0.84 -2.65,-1.26 -4.32,-1.26 -1.93,0 -3.73,0.58 -5.41,1.74 -1.68,1.16 -2.92,2.73 -3.72,4.69 -0.8,1.96 -1.21,4.98 -1.21,9.02l0 13.72 -4.15 0 0 -32.41z"/>
    <path class="fil3" d="M135.74 23.86l4.15 0 0 25.8c0,4.54 -0.4,7.86 -1.19,9.97 -1.09,2.97 -2.98,5.26 -5.69,6.87 -2.7,1.61 -5.94,2.41 -9.73,2.41 -2.78,0 -5.27,-0.4 -7.49,-1.18 -2.21,-0.79 -4.01,-1.85 -5.4,-3.18 -1.38,-1.32 -2.67,-3.28 -3.83,-5.83l4.52 0c1.23,2.16 2.82,3.75 4.77,4.79 1.94,1.04 4.36,1.56 7.24,1.56 2.85,0 5.25,-0.53 7.2,-1.58 1.96,-1.06 3.36,-2.38 4.19,-3.97 0.83,-1.6 1.25,-4.17 1.25,-7.74l0 -1.67c-1.57,1.98 -3.49,3.51 -5.76,4.57 -2.26,1.07 -4.67,1.6 -7.21,1.6 -2.98,0 -5.78,-0.74 -8.4,-2.22 -2.62,-1.48 -4.65,-3.47 -6.08,-5.96 -1.43,-2.5 -2.15,-5.25 -2.15,-8.24 0,-3 0.74,-5.79 2.24,-8.38 1.49,-2.58 3.55,-4.64 6.18,-6.14 2.64,-1.51 5.41,-2.26 8.33,-2.26 2.42,0 4.69,0.5 6.79,1.49 2.09,0.99 4.12,2.64 6.06,4.94l0 -5.63zm-12.32 3.23c-2.36,0 -4.56,0.57 -6.58,1.71 -2.03,1.14 -3.61,2.72 -4.76,4.73 -1.15,2.01 -1.73,4.19 -1.73,6.54 0,3.55 1.19,6.48 3.57,8.81 2.38,2.32 5.47,3.48 9.26,3.48 3.83,0 6.92,-1.15 9.25,-3.45 2.33,-2.31 3.5,-5.33 3.5,-9.09 0,-2.44 -0.54,-4.62 -1.61,-6.53 -1.07,-1.91 -2.59,-3.43 -4.56,-4.54 -1.96,-1.11 -4.08,-1.67 -6.34,-1.67z"/>
   </g>
   <rect class="fil4" x="0" y="74.57" width="176.19" height="6.76"/>
   <path class="fil5" d="M73.5 79.61l0 -3.87 1.72 0c0.35,0 0.61,0.04 0.79,0.1 0.18,0.07 0.32,0.19 0.43,0.37 0.11,0.18 0.16,0.37 0.16,0.58 0,0.27 -0.09,0.51 -0.27,0.69 -0.18,0.19 -0.45,0.31 -0.82,0.36 0.14,0.06 0.24,0.13 0.31,0.19 0.15,0.14 0.29,0.31 0.42,0.51l0.67 1.05 -0.64 0 -0.51 -0.81c-0.15,-0.23 -0.27,-0.41 -0.37,-0.53 -0.1,-0.12 -0.18,-0.21 -0.26,-0.26 -0.08,-0.05 -0.15,-0.08 -0.23,-0.1 -0.06,-0.01 -0.15,-0.02 -0.28,-0.02l-0.59 0 0 1.72 -0.51 0zm0.51 -2.16l1.1 0c0.23,0 0.42,-0.02 0.55,-0.07 0.13,-0.05 0.23,-0.13 0.3,-0.23 0.07,-0.11 0.1,-0.22 0.1,-0.35 0,-0.18 -0.07,-0.33 -0.2,-0.45 -0.13,-0.12 -0.34,-0.18 -0.63,-0.18l-1.22 0 0 1.28zm5.23 1.25l0.49 0.07c-0.08,0.29 -0.22,0.51 -0.43,0.67 -0.21,0.16 -0.48,0.24 -0.8,0.24 -0.41,0 -0.73,-0.13 -0.97,-0.38 -0.24,-0.25 -0.36,-0.6 -0.36,-1.06 0,-0.47 0.12,-0.84 0.36,-1.09 0.24,-0.26 0.56,-0.39 0.94,-0.39 0.37,0 0.68,0.13 0.92,0.38 0.24,0.25 0.36,0.61 0.36,1.08 0,0.03 -0,0.07 -0,0.13l-2.09 0c0.02,0.31 0.1,0.54 0.26,0.71 0.16,0.16 0.35,0.25 0.59,0.25 0.17,0 0.32,-0.05 0.44,-0.14 0.12,-0.09 0.22,-0.24 0.29,-0.44zm-1.56 -0.76l1.56 0c-0.02,-0.24 -0.08,-0.41 -0.18,-0.53 -0.15,-0.18 -0.35,-0.27 -0.59,-0.27 -0.22,0 -0.4,0.07 -0.55,0.22 -0.15,0.15 -0.23,0.34 -0.25,0.59zm4.48 0.64l0.47 0.07c-0.05,0.32 -0.18,0.57 -0.39,0.75 -0.21,0.18 -0.47,0.27 -0.77,0.27 -0.38,0 -0.69,-0.12 -0.92,-0.37 -0.23,-0.25 -0.35,-0.61 -0.35,-1.08 0,-0.3 0.05,-0.57 0.15,-0.79 0.1,-0.23 0.25,-0.4 0.46,-0.51 0.2,-0.11 0.43,-0.17 0.67,-0.17 0.3,0 0.55,0.08 0.75,0.23 0.19,0.15 0.32,0.37 0.37,0.66l-0.46 0.07c-0.04,-0.19 -0.12,-0.33 -0.23,-0.43 -0.11,-0.09 -0.25,-0.14 -0.41,-0.14 -0.24,0 -0.44,0.08 -0.59,0.26 -0.15,0.17 -0.22,0.44 -0.22,0.81 0,0.38 0.07,0.65 0.22,0.82 0.15,0.17 0.33,0.26 0.57,0.26 0.19,0 0.34,-0.06 0.47,-0.17 0.13,-0.11 0.21,-0.29 0.24,-0.53zm1.9 0.6l0.07 0.42c-0.13,0.03 -0.25,0.04 -0.36,0.04 -0.17,0 -0.31,-0.03 -0.4,-0.08 -0.1,-0.05 -0.16,-0.13 -0.2,-0.22 -0.04,-0.09 -0.06,-0.28 -0.06,-0.56l0 -1.62 -0.35 0 0 -0.37 0.35 0 0 -0.69 0.48 -0.29 0 0.98 0.48 0 0 0.37 -0.48 0 0 1.64c0,0.14 0.01,0.22 0.02,0.26 0.02,0.04 0.04,0.07 0.08,0.09 0.04,0.02 0.09,0.03 0.16,0.03 0.05,0 0.12,-0.01 0.21,-0.02zm2.3 0.07c-0.18,0.15 -0.35,0.26 -0.51,0.32 -0.16,0.06 -0.34,0.09 -0.53,0.09 -0.31,0 -0.54,-0.07 -0.71,-0.22 -0.17,-0.15 -0.25,-0.34 -0.25,-0.57 0,-0.14 0.03,-0.26 0.09,-0.38 0.06,-0.11 0.15,-0.2 0.25,-0.27 0.1,-0.07 0.22,-0.12 0.34,-0.16 0.09,-0.02 0.24,-0.05 0.42,-0.07 0.38,-0.04 0.67,-0.1 0.85,-0.16 0,-0.07 0,-0.11 0,-0.12 0,-0.19 -0.04,-0.33 -0.13,-0.41 -0.12,-0.11 -0.3,-0.16 -0.54,-0.16 -0.22,0 -0.39,0.04 -0.5,0.12 -0.11,0.08 -0.19,0.22 -0.24,0.42l-0.47 -0.07c0.04,-0.2 0.11,-0.36 0.21,-0.48 0.1,-0.12 0.24,-0.22 0.42,-0.28 0.18,-0.07 0.4,-0.1 0.64,-0.1 0.24,0 0.44,0.03 0.59,0.08 0.15,0.06 0.26,0.13 0.33,0.21 0.07,0.09 0.12,0.19 0.15,0.32 0.02,0.08 0.02,0.23 0.02,0.44l0 0.63c0,0.44 0.01,0.72 0.03,0.84 0.02,0.12 0.06,0.23 0.12,0.34l-0.5 0c-0.05,-0.1 -0.08,-0.22 -0.09,-0.35zm-0.04 -1.05c-0.17,0.07 -0.43,0.13 -0.78,0.18 -0.2,0.03 -0.34,0.06 -0.42,0.1 -0.08,0.04 -0.14,0.09 -0.19,0.15 -0.04,0.07 -0.07,0.14 -0.07,0.23 0,0.13 0.05,0.23 0.15,0.31 0.1,0.08 0.24,0.13 0.42,0.13 0.18,0 0.35,-0.04 0.49,-0.12 0.14,-0.08 0.25,-0.19 0.31,-0.33 0.05,-0.11 0.08,-0.27 0.08,-0.47l0 -0.17zm1.21 1.41l0 -2.81 0.43 0 0 0.4c0.21,-0.31 0.5,-0.46 0.89,-0.46 0.17,0 0.32,0.03 0.47,0.09 0.14,0.06 0.25,0.14 0.32,0.24 0.07,0.1 0.12,0.22 0.15,0.35 0.02,0.09 0.03,0.24 0.03,0.46l0 1.72 -0.48 0 0 -1.7c0,-0.19 -0.02,-0.34 -0.05,-0.43 -0.04,-0.1 -0.1,-0.17 -0.2,-0.23 -0.09,-0.06 -0.21,-0.08 -0.33,-0.08 -0.2,0 -0.37,0.06 -0.52,0.19 -0.15,0.13 -0.22,0.37 -0.22,0.73l0 1.53 -0.48 0zm2.92 0.23l0.46 0.07c0.02,0.14 0.07,0.25 0.16,0.31 0.12,0.09 0.28,0.13 0.48,0.13 0.22,0 0.39,-0.04 0.51,-0.13 0.12,-0.09 0.2,-0.21 0.24,-0.37 0.02,-0.1 0.04,-0.3 0.03,-0.61 -0.21,0.25 -0.47,0.37 -0.78,0.37 -0.39,0 -0.68,-0.14 -0.9,-0.42 -0.21,-0.28 -0.32,-0.61 -0.32,-1 0,-0.27 0.05,-0.51 0.15,-0.74 0.1,-0.23 0.24,-0.4 0.42,-0.52 0.18,-0.12 0.4,-0.18 0.65,-0.18 0.33,0 0.6,0.13 0.82,0.41l0 -0.35 0.44 0 0 2.42c0,0.44 -0.04,0.75 -0.13,0.93 -0.09,0.18 -0.23,0.33 -0.42,0.43 -0.19,0.11 -0.43,0.16 -0.71,0.16 -0.33,0 -0.6,-0.07 -0.81,-0.22 -0.21,-0.15 -0.31,-0.38 -0.3,-0.68zm0.39 -1.68c0,0.37 0.07,0.63 0.22,0.8 0.15,0.17 0.33,0.25 0.55,0.25 0.22,0 0.4,-0.08 0.55,-0.25 0.15,-0.17 0.22,-0.43 0.22,-0.79 0,-0.34 -0.08,-0.6 -0.23,-0.77 -0.15,-0.17 -0.34,-0.26 -0.55,-0.26 -0.21,0 -0.39,0.09 -0.54,0.26 -0.15,0.17 -0.22,0.42 -0.22,0.76zm2.69 1.45l0 -3.87 0.48 0 0 3.87 -0.48 0zm3.13 -0.91l0.49 0.07c-0.08,0.29 -0.22,0.51 -0.43,0.67 -0.21,0.16 -0.48,0.24 -0.8,0.24 -0.41,0 -0.73,-0.13 -0.97,-0.38 -0.24,-0.25 -0.36,-0.6 -0.36,-1.06 0,-0.47 0.12,-0.84 0.36,-1.09 0.24,-0.26 0.56,-0.39 0.94,-0.39 0.37,0 0.68,0.13 0.92,0.38 0.24,0.25 0.36,0.61 0.36,1.08 0,0.03 -0,0.07 -0,0.13l-2.09 0c0.02,0.31 0.1,0.54 0.26,0.71 0.16,0.16 0.35,0.25 0.59,0.25 0.17,0 0.32,-0.05 0.44,-0.14 0.12,-0.09 0.22,-0.24 0.29,-0.44zm-1.56 -0.76l1.56 0c-0.02,-0.24 -0.08,-0.41 -0.18,-0.53 -0.15,-0.18 -0.35,-0.27 -0.59,-0.27 -0.22,0 -0.4,0.07 -0.55,0.22 -0.15,0.15 -0.23,0.34 -0.25,0.59zm2.46 0.51l0 -0.48 1.47 0 0 0.48 -1.47 0zm2.07 1.16l0 -3.87 0.51 0 0 1.6 2 0 0 -1.6 0.51 0 0 3.87 -0.51 0 0 -1.82 -2 0 0 1.82 -0.51 0z"/>
  </g>
 </g>
</svg>
