<?xml version="1.0" encoding="UTF-8"?>
<!DOCTYPE svg PUBLIC "-//W3C//DTD SVG 1.1//EN" "http://www.w3.org/Graphics/SVG/1.1/DTD/svg11.dtd">
<!-- Creator: CorelDRAW 2019 (64-Bit Versión de evaluación) -->
<svg xmlns="http://www.w3.org/2000/svg" xml:space="preserve" width="8.5428mm" height="8.5429mm" version="1.1" style="shape-rendering:geometricPrecision; text-rendering:geometricPrecision; image-rendering:optimizeQuality; fill-rule:evenodd; clip-rule:evenodd"
viewBox="0 0 46.86 46.86"
 xmlns:xlink="http://www.w3.org/1999/xlink">
 <defs>
  <style type="text/css">
   <![CDATA[
    .str0 {stroke:#D2D3D5;stroke-width:0.42;stroke-miterlimit:22.9256}
    .fil0 {fill:#D2D3D5}
    .fil4 {fill:#BDBFC1}
    .fil5 {fill:#FEFEFE;fill-rule:nonzero}
    .fil1 {fill:#ED3237;fill-rule:nonzero}
    .fil3 {fill:#00AFEF;fill-rule:nonzero}
    .fil2 {fill:#00A859;fill-rule:nonzero}
   ]]>
  </style>
 </defs>
 <g id="Capa_x0020_1">
  <metadata id="CorelCorpID_0Corel-Layer"/>
  <g id="_2106357605504">
   <rect class="fil0 str0" x="0.21" y="0.21" width="46.44" height="46.44"/>
   <path id="img-i" class="fil1" d="M5.22 7.49c0.36,0 0.66,0.13 0.91,0.38 0.25,0.25 0.38,0.56 0.38,0.92 0,0.35 -0.13,0.66 -0.38,0.91 -0.25,0.26 -0.56,0.38 -0.91,0.38 -0.35,0 -0.65,-0.13 -0.9,-0.38 -0.25,-0.25 -0.38,-0.56 -0.38,-0.91 0,-0.36 0.13,-0.67 0.38,-0.92 0.25,-0.26 0.55,-0.38 0.9,-0.38zm-0.78 5.01l1.56 0 0 12.2 -1.56 0 0 -12.2z"/>
   <path id="img-m" class="fil2" d="M9.27 12.49l1.56 0 0 2.11c0.55,-0.78 1.11,-1.35 1.68,-1.71 0.79,-0.47 1.63,-0.7 2.5,-0.7 0.59,0 1.15,0.11 1.68,0.35 0.53,0.23 0.96,0.54 1.3,0.92 0.34,0.39 0.63,0.94 0.88,1.66 0.52,-0.96 1.18,-1.69 1.96,-2.18 0.78,-0.5 1.63,-0.75 2.53,-0.75 0.84,0 1.59,0.21 2.23,0.64 0.65,0.43 1.13,1.02 1.44,1.78 0.31,0.76 0.47,1.9 0.47,3.43l0 6.65 -1.61 0 0 -6.65c0,-1.31 -0.09,-2.2 -0.28,-2.69 -0.19,-0.49 -0.51,-0.88 -0.96,-1.18 -0.45,-0.3 -0.99,-0.45 -1.61,-0.45 -0.76,0 -1.46,0.23 -2.08,0.67 -0.63,0.45 -1.09,1.04 -1.38,1.79 -0.29,0.75 -0.44,1.99 -0.44,3.74l0 4.77 -1.56 0 0 -6.24c0,-1.47 -0.09,-2.47 -0.28,-3 -0.18,-0.53 -0.5,-0.95 -0.96,-1.27 -0.46,-0.32 -1,-0.48 -1.63,-0.48 -0.73,0 -1.41,0.22 -2.04,0.65 -0.63,0.44 -1.1,1.03 -1.4,1.77 -0.3,0.74 -0.46,1.87 -0.46,3.39l0 5.16 -1.56 0 0 -12.2z"/>
   <path id="img-g" class="fil3" d="M41.36 12.49l1.56 0 0 9.71c0,1.71 -0.15,2.96 -0.45,3.75 -0.41,1.12 -1.12,1.98 -2.14,2.58 -1.01,0.6 -2.24,0.91 -3.66,0.91 -1.05,0 -1.98,-0.15 -2.82,-0.44 -0.83,-0.3 -1.51,-0.7 -2.03,-1.2 -0.52,-0.5 -1,-1.23 -1.44,-2.19l1.7 0c0.46,0.81 1.06,1.41 1.8,1.8 0.73,0.39 1.64,0.59 2.73,0.59 1.07,0 1.98,-0.2 2.71,-0.59 0.74,-0.4 1.26,-0.9 1.58,-1.49 0.31,-0.6 0.47,-1.57 0.47,-2.91l0 -0.63c-0.59,0.75 -1.31,1.32 -2.17,1.72 -0.85,0.4 -1.76,0.6 -2.71,0.6 -1.12,0 -2.17,-0.28 -3.16,-0.83 -0.99,-0.55 -1.75,-1.31 -2.29,-2.24 -0.54,-0.94 -0.81,-1.98 -0.81,-3.1 0,-1.13 0.28,-2.18 0.84,-3.15 0.56,-0.97 1.34,-1.75 2.33,-2.31 0.99,-0.57 2.04,-0.85 3.13,-0.85 0.91,0 1.76,0.19 2.55,0.56 0.79,0.37 1.55,0.99 2.28,1.86l0 -2.12zm-4.64 1.22c-0.89,0 -1.71,0.21 -2.48,0.64 -0.76,0.43 -1.36,1.02 -1.79,1.78 -0.43,0.76 -0.65,1.58 -0.65,2.46 0,1.34 0.45,2.44 1.34,3.31 0.9,0.87 2.06,1.31 3.48,1.31 1.44,0 2.6,-0.43 3.48,-1.3 0.88,-0.87 1.32,-2.01 1.32,-3.42 0,-0.92 -0.2,-1.74 -0.6,-2.46 -0.4,-0.72 -0.98,-1.29 -1.72,-1.71 -0.74,-0.42 -1.54,-0.63 -2.38,-0.63z"/>
   <rect class="fil4" x="0.21" y="37.02" width="46.44" height="3.58"/>
   <path class="fil5" d="M16.77 39.02l0.39 -0.06c0.02,0.16 0.08,0.27 0.18,0.36 0.1,0.08 0.24,0.12 0.42,0.12 0.18,0 0.31,-0.04 0.4,-0.11 0.09,-0.07 0.13,-0.16 0.13,-0.26 0,-0.09 -0.04,-0.16 -0.12,-0.21 -0.06,-0.04 -0.19,-0.08 -0.4,-0.13 -0.29,-0.07 -0.49,-0.13 -0.6,-0.19 -0.11,-0.05 -0.19,-0.13 -0.25,-0.22 -0.06,-0.09 -0.09,-0.2 -0.09,-0.31 0,-0.1 0.02,-0.2 0.07,-0.29 0.05,-0.09 0.11,-0.16 0.19,-0.22 0.06,-0.04 0.14,-0.08 0.25,-0.11 0.11,-0.03 0.22,-0.05 0.34,-0.05 0.18,0 0.34,0.03 0.48,0.08 0.14,0.05 0.24,0.12 0.3,0.21 0.06,0.09 0.11,0.21 0.13,0.36l-0.38 0.05c-0.02,-0.12 -0.07,-0.22 -0.15,-0.28 -0.08,-0.07 -0.2,-0.1 -0.35,-0.1 -0.18,0 -0.31,0.03 -0.38,0.09 -0.08,0.06 -0.12,0.13 -0.12,0.21 0,0.05 0.02,0.1 0.05,0.14 0.03,0.04 0.08,0.08 0.15,0.1 0.04,0.01 0.15,0.05 0.35,0.1 0.28,0.07 0.47,0.13 0.58,0.18 0.11,0.05 0.2,0.12 0.26,0.21 0.06,0.09 0.09,0.2 0.09,0.34 0,0.13 -0.04,0.25 -0.11,0.37 -0.08,0.12 -0.19,0.2 -0.33,0.27 -0.14,0.06 -0.31,0.09 -0.49,0.09 -0.3,0 -0.53,-0.06 -0.69,-0.19 -0.16,-0.13 -0.26,-0.31 -0.3,-0.55zm3.86 1.58l0 -1.14c-0.06,0.09 -0.15,0.16 -0.26,0.21 -0.11,0.06 -0.23,0.08 -0.35,0.08 -0.27,0 -0.51,-0.11 -0.71,-0.33 -0.2,-0.22 -0.3,-0.52 -0.3,-0.9 0,-0.23 0.04,-0.44 0.12,-0.62 0.08,-0.18 0.2,-0.32 0.35,-0.42 0.15,-0.09 0.32,-0.14 0.5,-0.14 0.29,0 0.51,0.12 0.68,0.36l0 -0.31 0.35 0 0 3.2 -0.39 0zm-1.21 -2.05c0,0.3 0.06,0.52 0.19,0.67 0.13,0.15 0.27,0.22 0.45,0.22 0.17,0 0.31,-0.07 0.43,-0.21 0.12,-0.14 0.18,-0.36 0.18,-0.65 0,-0.31 -0.06,-0.54 -0.19,-0.69 -0.13,-0.16 -0.28,-0.23 -0.45,-0.23 -0.17,0 -0.31,0.07 -0.43,0.22 -0.12,0.14 -0.18,0.37 -0.18,0.68zm3.73 1.16l0 -0.34c-0.18,0.26 -0.42,0.39 -0.73,0.39 -0.14,0 -0.26,-0.03 -0.38,-0.08 -0.12,-0.05 -0.21,-0.12 -0.26,-0.2 -0.06,-0.08 -0.1,-0.18 -0.12,-0.29 -0.02,-0.08 -0.02,-0.2 -0.02,-0.37l0 -1.43 0.39 0 0 1.28c0,0.2 0.01,0.34 0.02,0.41 0.02,0.1 0.08,0.18 0.16,0.24 0.08,0.06 0.18,0.09 0.3,0.09 0.12,0 0.23,-0.03 0.33,-0.09 0.1,-0.06 0.18,-0.14 0.22,-0.25 0.04,-0.1 0.06,-0.25 0.06,-0.45l0 -1.24 0.39 0 0 2.32 -0.35 0zm2.48 -0.29c-0.15,0.12 -0.29,0.21 -0.42,0.26 -0.13,0.05 -0.28,0.08 -0.43,0.08 -0.25,0 -0.45,-0.06 -0.59,-0.19 -0.14,-0.12 -0.21,-0.28 -0.21,-0.47 0,-0.11 0.03,-0.22 0.08,-0.31 0.05,-0.09 0.12,-0.17 0.2,-0.22 0.08,-0.06 0.18,-0.1 0.28,-0.13 0.08,-0.02 0.19,-0.04 0.35,-0.06 0.32,-0.04 0.55,-0.08 0.7,-0.13 0,-0.05 0,-0.09 0,-0.1 0,-0.16 -0.04,-0.27 -0.11,-0.34 -0.1,-0.09 -0.25,-0.13 -0.45,-0.13 -0.19,0 -0.32,0.03 -0.41,0.1 -0.09,0.06 -0.15,0.18 -0.2,0.34l-0.38 -0.05c0.04,-0.16 0.09,-0.3 0.17,-0.4 0.08,-0.1 0.2,-0.18 0.35,-0.23 0.15,-0.05 0.33,-0.08 0.53,-0.08 0.2,0 0.36,0.02 0.48,0.07 0.12,0.05 0.22,0.11 0.27,0.18 0.06,0.07 0.1,0.16 0.12,0.27 0.01,0.07 0.02,0.19 0.02,0.36l0 0.52c0,0.36 0.01,0.59 0.02,0.69 0.02,0.1 0.05,0.19 0.1,0.28l-0.41 0c-0.04,-0.08 -0.06,-0.18 -0.08,-0.29zm-0.03 -0.87c-0.14,0.06 -0.36,0.11 -0.64,0.15 -0.16,0.02 -0.28,0.05 -0.34,0.08 -0.07,0.03 -0.12,0.07 -0.15,0.13 -0.04,0.06 -0.06,0.12 -0.06,0.19 0,0.1 0.04,0.19 0.12,0.26 0.08,0.07 0.2,0.1 0.35,0.1 0.15,0 0.29,-0.03 0.4,-0.1 0.12,-0.07 0.2,-0.16 0.26,-0.27 0.04,-0.09 0.06,-0.22 0.06,-0.39l0 -0.14zm1 1.16l0 -2.32 0.35 0 0 0.35c0.09,-0.16 0.17,-0.27 0.25,-0.32 0.08,-0.05 0.16,-0.08 0.25,-0.08 0.13,0 0.27,0.04 0.4,0.12l-0.14 0.36c-0.1,-0.05 -0.19,-0.08 -0.29,-0.08 -0.09,0 -0.16,0.03 -0.23,0.08 -0.07,0.05 -0.12,0.12 -0.14,0.21 -0.04,0.14 -0.07,0.29 -0.07,0.46l0 1.21 -0.39 0zm3.07 -0.75l0.41 0.05c-0.06,0.24 -0.18,0.42 -0.35,0.55 -0.17,0.13 -0.39,0.2 -0.66,0.2 -0.34,0 -0.61,-0.1 -0.8,-0.31 -0.2,-0.21 -0.3,-0.5 -0.3,-0.88 0,-0.39 0.1,-0.69 0.3,-0.9 0.2,-0.22 0.46,-0.32 0.78,-0.32 0.31,0 0.56,0.1 0.76,0.32 0.2,0.21 0.29,0.51 0.29,0.89 0,0.02 -0,0.06 -0,0.1l-1.72 0c0.01,0.25 0.09,0.45 0.22,0.58 0.13,0.13 0.29,0.2 0.48,0.2 0.14,0 0.27,-0.04 0.37,-0.11 0.1,-0.08 0.18,-0.2 0.24,-0.36zm-1.28 -0.63l1.29 0c-0.02,-0.2 -0.07,-0.34 -0.15,-0.44 -0.12,-0.15 -0.29,-0.23 -0.48,-0.23 -0.18,0 -0.33,0.06 -0.45,0.18 -0.12,0.12 -0.19,0.28 -0.2,0.48z"/>
  </g>
 </g>
</svg>
